<svg width="28" height="28" viewBox="0 0 28 28" fill="none" xmlns="http://www.w3.org/2000/svg">
<path fill-rule="evenodd" clip-rule="evenodd" d="M26.4614 14.1435C26.4561 14.1435 26.4497 14.1435 26.5001 14.1435C25.7309 14.1346 25.1582 13.5482 25.2036 12.8895C25.232 7.64499 20.4683 2.7613 15.1748 2.58517C14.4612 2.56183 13.9027 1.96401 13.926 1.25017C13.9506 0.537119 14.5555 0.017358 15.2959 0C21.9988 0.223203 27.8368 6.2336 27.7539 12.8653C27.7449 13.5755 27.167 14.1435 26.4614 14.1435ZM15.1735 4.32019C19.7353 4.8578 23.417 8.7768 23.3808 13.0569C23.3743 13.7667 22.7966 14.3391 22.0881 14.3391C22.0842 14.3391 22.0804 14.3391 22.0764 14.3391C21.3628 14.3326 20.789 13.7488 20.7954 13.0335C20.8213 10.0346 18.1635 7.27861 14.9213 6.88928C14.1626 6.80671 13.6558 6.19927 13.7387 5.45347C13.8226 4.74296 14.4688 4.23085 15.1735 4.32019ZM10.4202 11.0437C9.90182 11.3893 9.6937 11.7176 10.0751 12.5499L12.2007 15.5325C13.1238 16.4056 14.3927 17.3861 15.706 17.9693C16.4558 18.303 16.62 18.0583 16.7932 17.8039C17.5262 16.714 18.422 16.0609 19.4549 15.8642C20.5538 15.6546 21.7521 15.9884 23.0596 16.926L23.4686 17.1698C24.1551 17.7027 24.8648 18.1557 25.5435 18.6612L25.9157 18.9457C26.9729 19.708 28.6369 20.9833 27.7475 23.4494C26.9706 25.6115 24.2689 28 21.6176 28C21.4947 28 21.3706 27.9881 21.2518 27.9559L21.0332 27.9063C20.7139 27.8723 20.2318 27.7301 19.7611 27.5313C10.6296 23.6732 4.16485 17.295 0.585467 8.57301C-0.160402 6.87026 -0.187471 5.20908 0.469149 3.77258C1.15421 2.27479 2.59799 1.15299 4.40651 0.527802C5.243 0.248308 6.06763 0.255075 6.85891 0.540747C8.66498 1.24586 12.2313 6.03158 12.3334 7.8729C12.4342 9.77287 11.0744 10.6063 10.4202 11.0437ZM9.75186 8.01746C9.59543 7.03678 6.86921 3.38717 5.96426 2.97087C5.85696 3.00716 5.78546 2.90988 5.63335 2.90988C5.50536 2.90988 5.36962 2.93577 5.21966 2.9849C4.02784 3.37825 3.24333 4.02383 2.82043 4.85064C2.4701 5.61528 2.53228 6.62685 2.93292 7.57899C6.28242 15.6507 12.2816 21.6283 20.767 25.1471C21.0178 25.2529 21.3319 25.3215 21.584 25.3771C21.6493 25.4746 21.6809 25.3993 21.7248 25.4084C23.0448 25.3333 24.8195 23.9478 25.3134 22.5723C25.5177 22.0068 25.5409 21.8428 24.3645 21.0174C24.2224 20.9097 24.0788 20.8039 23.9405 20.6937C23.3187 20.2024 22.6621 19.7535 22.0067 19.3639L21.615 18.9874C21.0849 18.6719 20.4361 18.313 19.9358 18.4078C19.6062 18.4713 19.27 18.7544 18.9365 19.2514C17.9502 20.7156 16.3886 21.1103 14.6551 20.3345C11.7093 18.3964 10.9325 17.2049 10.2512 16.7731L7.88655 13.9325C7.83996 13.8664 7.79985 13.798 7.76748 13.7243C6.55124 11.0358 8.09319 9.543 9.03963 8.89056C9.71694 8.40326 9.7648 8.2285 9.75186 8.01746Z" fill="#3B5993"/>
</svg>
