<svg width="21" height="21" viewBox="0 0 21 21" fill="none" xmlns="http://www.w3.org/2000/svg">
<path fill-rule="evenodd" clip-rule="evenodd" d="M19.8424 10.6048C19.8385 10.6048 19.8337 10.6048 19.8714 10.6048C19.2956 10.5981 18.8668 10.1591 18.9007 9.66589C18.922 5.73918 15.3556 2.08261 11.3925 1.95074C10.8583 1.93326 10.4402 1.48565 10.4576 0.951179C10.476 0.417294 10.9289 0.0281332 11.4832 0.0151367C16.5015 0.182256 20.8722 4.68243 20.8101 9.64775C20.8034 10.1795 20.3707 10.6048 19.8424 10.6048ZM11.3916 3.2498C14.8068 3.65232 17.5632 6.5866 17.5361 9.79123C17.5313 10.3227 17.0987 10.7513 16.5683 10.7513C16.5654 10.7513 16.5625 10.7513 16.5595 10.7513C16.0253 10.7464 15.5957 10.3093 15.6005 9.77375C15.6199 7.52837 13.63 5.46486 11.2027 5.17335C10.6347 5.11153 10.2553 4.65672 10.3173 4.09832C10.3802 3.56634 10.864 3.18291 11.3916 3.2498ZM7.83293 8.28393C7.4448 8.54268 7.28899 8.78844 7.57454 9.41161L9.16592 11.6448C9.85701 12.2985 10.807 13.0326 11.7902 13.4693C12.3515 13.7192 12.4745 13.5359 12.6042 13.3454C13.1529 12.5295 13.8236 12.0404 14.5969 11.8931C15.4196 11.7362 16.3167 11.9862 17.2956 12.6881L17.6018 12.8707C18.1158 13.2697 18.6471 13.6089 19.1552 13.9873L19.4339 14.2003C20.2254 14.7711 21.4712 15.726 20.8053 17.5724C20.2237 19.1912 18.201 20.9796 16.216 20.9796C16.124 20.9796 16.0312 20.9707 15.9422 20.9466L15.7785 20.9095C15.5395 20.884 15.1785 20.7775 14.8262 20.6287C7.9897 17.74 3.14971 12.9644 0.469938 6.43402C-0.0884715 5.15911 -0.108737 3.91534 0.382854 2.83978C0.895738 1.71834 1.97665 0.878413 3.33064 0.410319C3.95689 0.201053 4.57426 0.206119 5.16667 0.420011C6.51882 0.947948 9.18883 4.53117 9.26527 5.90982C9.34075 7.33239 8.32269 7.95637 7.83293 8.28393ZM7.33253 6.01805C7.21542 5.28379 5.17438 2.55122 4.49687 2.23952C4.41654 2.26669 4.36301 2.19385 4.24913 2.19385C4.15331 2.19385 4.05169 2.21324 3.93942 2.25002C3.04714 2.54454 2.4598 3.0279 2.14318 3.64696C1.8809 4.21947 1.92745 4.97686 2.2274 5.68976C4.73507 11.7333 9.2265 16.2089 15.5792 18.8436C15.767 18.9228 16.0022 18.9741 16.1909 19.0157C16.2398 19.0887 16.2634 19.0324 16.2963 19.0392C17.2845 18.983 18.6132 17.9456 18.983 16.9157C19.1359 16.4923 19.1533 16.3695 18.2726 15.7515C18.1662 15.6709 18.0587 15.5916 17.9552 15.5092C17.4896 15.1413 16.998 14.8052 16.5073 14.5135L16.2141 14.2316C15.8173 13.9953 15.3315 13.7267 14.9569 13.7976C14.7101 13.8452 14.4584 14.0572 14.2088 14.4293C13.4704 15.5255 12.3012 15.8211 11.0034 15.2402C8.79798 13.7891 8.21644 12.897 7.70635 12.5737L5.93603 10.4469C5.90115 10.3974 5.87112 10.3461 5.84689 10.291C4.93633 8.27798 6.09074 7.16028 6.79931 6.67177C7.30639 6.30691 7.34222 6.17607 7.33253 6.01805Z" fill="white"/>
</svg>
