<svg width="24" height="13" viewBox="0 0 24 13" fill="none" xmlns="http://www.w3.org/2000/svg">
<path fill-rule="evenodd" clip-rule="evenodd" d="M7.74122 0.919379C8.05341 1.06739 8.78176 0.990374 9.04338 1.89279C9.27909 2.70568 9.26941 4.64972 9.08725 5.5546C8.58352 8.05687 6.45716 4.09919 5.9322 3.22981C5.66044 2.77961 5.18762 1.7528 4.97751 1.25182C4.61505 0.387378 3.74606 0.571502 2.71035 0.571502C2.32073 0.571502 2.05771 0.607154 1.6901 0.606383C1.11488 0.604994 0.00143433 0.494951 0.00143433 1.02371C0.00143433 1.42823 0.233239 1.83244 0.411815 2.18325L1.374 4.08422C1.54212 4.4037 1.69634 4.72395 1.88631 5.03865L2.40908 5.94785C3.78586 8.19577 5.44003 10.8325 7.91714 12.0504C9.79468 12.9734 10.6783 12.9548 12.737 12.9548C13.0574 12.9548 13.46 12.7822 13.5713 12.5623C13.7071 12.2941 13.6932 11.8502 13.7229 11.4946C13.7955 10.6284 14.221 9.48526 15.2497 10.192C15.737 10.5269 16.3292 11.3069 16.774 11.746C17.015 11.9838 17.3066 12.2953 17.5772 12.4823C17.7158 12.5782 17.9453 12.7165 18.0886 12.7768C18.9392 13.1349 19.916 12.9545 20.9694 12.9548C21.554 12.9549 22.573 13.0503 23.0658 12.7318C23.847 12.2266 23.0658 11.3239 22.6229 10.7633C22.3699 10.4432 21.3938 9.42091 21.0482 9.11995C18.7859 7.15029 19.2386 7.46962 21.5825 4.37793C22.0742 3.72925 23.3969 2.02953 23.3969 1.12804C23.3969 0.655462 22.8903 0.615026 22.5112 0.575207C22.3162 0.554834 22.262 0.605148 22.0614 0.607617C21.4383 0.615334 18.6006 0.540172 18.2456 0.661172C18.0163 0.739422 17.886 0.972626 17.7928 1.18746C17.2655 2.40148 16.906 3.23753 16.1499 4.36342C15.8438 4.81918 14.8633 6.34573 14.2497 6.34573C13.8101 6.34573 13.6517 5.48005 13.6517 5.05871C13.6517 3.7808 13.7221 2.61493 13.7221 1.37159C13.7221 1.1069 13.6642 0.8294 13.5761 0.646202C13.1917 -0.154193 11.0979 0.0149614 10.1336 0.0149614C9.43706 0.0149614 8.3141 0.0862653 7.88046 0.639565C7.81302 0.72584 7.75371 0.771987 7.74122 0.919379Z" fill="white"/>
</svg>
