<svg width="21" height="21" viewBox="0 0 21 21" fill="none" xmlns="http://www.w3.org/2000/svg">
<path fill-rule="evenodd" clip-rule="evenodd" d="M21 10.2295C21 15.9109 16.3843 20.4592 10.6896 20.4592C8.88261 20.4592 7.18503 19.9971 5.70716 19.1865L0 21L1.86048 15.5111C0.922581 13.9705 0.382279 12.1611 0.382279 10.2292C0.382279 4.57974 4.99693 0 10.6916 0C16.3851 0.00127115 21 4.58047 21 10.2295ZM10.6896 1.6848C5.91048 1.6848 2.05309 5.48948 2.05309 10.2317C2.05309 12.1141 2.63655 13.8569 3.67414 15.2732L2.59206 18.4662L5.92151 17.4084C7.29107 18.3064 8.9297 18.8303 10.6896 18.8303C15.4857 18.8303 19.3582 14.972 19.3582 10.2295C19.3582 5.48948 15.4924 1.6848 10.6896 1.6848ZM15.8968 12.5861C15.8326 12.483 15.6641 12.4204 15.412 12.294C15.1598 12.1675 13.916 11.5615 13.6859 11.48C13.4532 11.4211 13.2847 11.3532 13.1161 11.6044C12.949 11.8558 12.4642 12.4204 12.3163 12.5876C12.1693 12.7552 12.0221 12.776 11.7693 12.6517C11.5166 12.5253 10.7013 12.2612 9.73568 11.4078C8.98463 10.7421 8.47705 9.93253 8.3306 9.67135C8.18214 9.4204 8.31561 9.28505 8.44098 9.16041C8.55405 9.04728 8.69341 8.86711 8.82012 8.74502C8.94676 8.57408 8.98865 8.47078 9.07294 8.30286C9.15577 8.13513 9.13871 7.98922 9.05153 7.86244C8.98865 7.73633 8.48407 6.50399 8.27246 6.00235C8.06212 5.50072 7.85184 5.58348 7.70406 5.58348C7.55687 5.58348 7.38848 5.56314 7.21989 5.56314C7.05136 5.56314 6.77753 5.62536 6.54611 5.87678C6.3147 6.12793 5.662 6.73406 5.662 7.96815C5.662 9.20323 6.56652 10.4397 6.69323 10.561C6.82055 10.7588 8.44895 13.343 11.0109 14.347C13.5809 15.35 13.5809 15.0148 14.0438 14.972C14.5072 14.9306 15.5787 14.3661 15.749 13.7818C15.9598 13.1947 15.9598 12.6906 15.8968 12.5861Z" fill="white"/>
</svg>
