<svg width="150" height="150" viewBox="0 0 150 150" fill="none" xmlns="http://www.w3.org/2000/svg">
<path d="M0 150H150V0H0V150Z" fill="#C23238"/>
<path d="M103.59 94.92C101.865 94.92 100.466 96.3187 100.466 98.0475V133.695H27.5624V61.185C28.5374 61.0312 29.5312 60.9262 30.5474 60.9262H36.4537L31.6462 65.7337C30.4274 66.9562 30.4274 68.9325 31.6499 70.155C32.2574 70.7625 33.0562 71.07 33.8587 71.07C34.6574 71.07 35.4562 70.7625 36.0674 70.155L46.2074 60.0112C47.4262 58.7925 47.4262 56.8125 46.2074 55.5937L36.0674 45.4537C34.8487 44.235 32.8687 44.235 31.6499 45.4537C30.4274 46.6725 30.4274 48.6525 31.6499 49.8712L36.4537 54.6787H30.5474C29.5349 54.6787 28.5449 54.7537 27.5624 54.8662V40.7775H100.466V71.8762C100.466 73.6012 101.865 75 103.59 75C105.315 75 106.714 73.6012 106.714 71.8762V37.65C106.714 35.925 105.315 34.5262 103.59 34.5262H24.4349C22.7099 34.5262 21.3112 35.925 21.3112 37.65V56.4337C11.7974 60.1462 5.0249 69.3862 5.0249 80.2012C5.0249 86.7675 7.5149 93 12.0299 97.7625C12.6449 98.4112 13.4699 98.7375 14.2987 98.7375C15.0712 98.7375 15.8437 98.4525 16.4474 97.8787C17.6999 96.69 17.7524 94.7137 16.5637 93.4612C13.1549 89.8687 11.2762 85.1587 11.2762 80.2012C11.2762 72.9187 15.3374 66.57 21.3112 63.2925V136.819C21.3112 138.544 22.7099 139.942 24.4349 139.942H103.59C105.315 139.942 106.714 138.544 106.714 136.819V98.0475C106.714 96.3187 105.315 94.92 103.59 94.92V94.92Z" fill="#FEFEFE"/>
<path d="M90.6677 50.7375H65.1565C63.4315 50.7375 62.0327 52.1363 62.0327 53.865C62.0327 55.59 63.4315 56.9888 65.1565 56.9888H90.6677C92.3965 56.9888 93.7952 55.59 93.7952 53.865C93.7952 52.1363 92.3965 50.7375 90.6677 50.7375Z" fill="#FEFEFE"/>
<path d="M90.6677 63.51H65.1565C63.4315 63.51 62.0327 64.9088 62.0327 66.6375C62.0327 68.3625 63.4315 69.7613 65.1565 69.7613H90.6677C92.3965 69.7613 93.7952 68.3625 93.7952 66.6375C93.7952 64.9088 92.3965 63.51 90.6677 63.51Z" fill="#FEFEFE"/>
<path d="M90.6676 76.2863H36.5588C34.8338 76.2863 33.4351 77.685 33.4351 79.41C33.4351 81.135 34.8338 82.5338 36.5588 82.5338H90.6676C92.3963 82.5338 93.7951 81.135 93.7951 79.41C93.7951 77.685 92.3963 76.2863 90.6676 76.2863Z" fill="#FEFEFE"/>
<path d="M90.6676 89.0587H36.5588C34.8338 89.0587 33.4351 90.4575 33.4351 92.1825C33.4351 93.9075 34.8338 95.3062 36.5588 95.3062H90.6676C92.3963 95.3062 93.7951 93.9075 93.7951 92.1825C93.7951 90.4575 92.3963 89.0587 90.6676 89.0587Z" fill="#FEFEFE"/>
<path d="M90.6674 101.831H36.4761C34.7511 101.831 33.3486 103.23 33.3486 104.955C33.3486 106.684 34.7511 108.083 36.4761 108.083H90.6674C92.3961 108.083 93.7949 106.684 93.7949 104.955C93.7949 103.23 92.3961 101.831 90.6674 101.831Z" fill="#FEFEFE"/>
<path d="M90.6674 114.608H36.4761C34.7511 114.608 33.3486 116.006 33.3486 117.731C33.3486 119.456 34.7511 120.855 36.4761 120.855H90.6674C92.3961 120.855 93.7949 119.456 93.7949 117.731C93.7949 116.006 92.3961 114.608 90.6674 114.608Z" fill="#FEFEFE"/>
<path d="M144.975 63.0751C144.975 56.5088 142.489 50.2726 137.97 45.5101C136.781 44.2576 134.801 44.2088 133.553 45.3976C132.3 46.5863 132.248 48.5626 133.436 49.8151C136.845 53.4076 138.724 58.1176 138.724 63.0751C138.724 70.0463 134.993 76.1438 129.439 79.5301V14.9288C129.439 13.2038 128.036 11.8051 126.311 11.8051H47.1602C45.4315 11.8051 44.0327 13.2038 44.0327 14.9288V26.5613C44.0327 28.2901 45.4315 29.6888 47.1602 29.6888C48.8852 29.6888 50.284 28.2901 50.284 26.5613V18.0563H123.188V81.9751C121.98 82.2151 120.731 82.3463 119.453 82.3463H113.55L118.354 77.5425C119.573 76.32 119.573 74.3438 118.354 73.1213C117.131 71.9026 115.155 71.9026 113.933 73.1213L103.793 83.2613C102.574 84.4838 102.574 86.4601 103.793 87.6826L113.933 97.8225C114.544 98.4338 115.343 98.7375 116.145 98.7375C116.944 98.7375 117.743 98.4338 118.354 97.8225C119.573 96.6038 119.573 94.6238 118.354 93.4013L113.55 88.5975H119.453C120.724 88.5975 121.965 88.4738 123.188 88.2901V110.974H114.638C112.909 110.974 111.51 112.373 111.51 114.098C111.51 115.823 112.909 117.225 114.638 117.225H126.311C128.036 117.225 129.439 115.823 129.439 114.098V86.5613C138.563 82.6651 144.975 73.605 144.975 63.0751V63.0751Z" fill="#FEFEFE"/>
</svg>
