<svg width="150" height="150" viewBox="0 0 150 150" fill="none" xmlns="http://www.w3.org/2000/svg">
<path d="M0.00195312 150H149.998V0H0.00195312V150Z" fill="#A972AE"/>
<path d="M101.743 28.32C100.941 28.32 100.135 28.0125 99.5233 27.3937C86.0008 13.7475 67.7795 19.1625 67.007 19.3987C65.3645 19.9087 63.6133 18.9862 63.0995 17.3437C62.5895 15.6975 63.5008 13.95 65.1433 13.4325C66.0583 13.1475 87.7183 6.59624 103.963 22.995C105.178 24.2212 105.171 26.2012 103.945 27.4162C103.333 28.02 102.538 28.32 101.743 28.32Z" fill="#FEFEFE"/>
<path d="M112.675 51.2737C111.808 51.2737 110.946 50.9175 110.331 50.2162C82.4907 18.6375 45.8682 37.5112 44.3232 38.3287C42.8007 39.1425 40.9107 38.5575 40.1007 37.035C39.2907 35.5162 39.8645 33.6262 41.387 32.8125C41.807 32.5912 83.8708 10.7437 115.018 46.0837C116.158 47.3775 116.035 49.3537 114.737 50.4937C114.145 51.0187 113.41 51.2737 112.675 51.2737Z" fill="#FEFEFE"/>
<path d="M119.15 90.0599C118.599 90.0599 118.037 89.9137 117.53 89.6062C111.729 86.0812 110.78 81.2249 109.944 76.9387C108.958 71.8649 107.54 66.4012 102.129 60.2437C94.4905 51.5512 83.5817 46.41 73.003 46.4512C55.6817 46.5487 33.4667 64.7474 33.2455 64.9312C31.9142 66.0299 29.9417 65.8462 28.843 64.5187C27.7442 63.1875 27.928 61.2187 29.2592 60.12C30.2342 59.31 53.4055 40.3125 72.9655 40.2037C73.0367 40.2037 73.108 40.2 73.1792 40.2C85.4942 40.2 98.053 46.1399 106.824 56.1187C113.267 63.4499 114.977 70.0912 116.079 75.7424C116.878 79.8487 117.493 82.2712 120.778 84.2624C122.252 85.1587 122.72 87.0824 121.828 88.5562C121.235 89.5237 120.208 90.0599 119.15 90.0599Z" fill="#FEFEFE"/>
<path d="M114.722 106.234C114.358 106.234 113.99 106.174 113.63 106.039C98.0116 100.234 97.1303 89.565 96.4215 80.9925C95.859 74.235 89.424 63.7837 78.7815 61.515C67.6778 59.1487 55.419 67.095 49.9253 72.1612C43.2278 78.3375 33.534 85.6087 33.1253 85.9162C31.7453 86.9475 29.7878 86.67 28.749 85.2862C27.714 83.9062 27.9953 81.945 29.379 80.9137C29.4765 80.8387 39.2303 73.5262 45.6878 67.5675C53.6078 60.2625 67.359 52.695 80.0828 55.4025C93.1365 58.185 101.807 70.29 102.643 80.3925C103.329 88.6762 103.91 95.76 115.809 100.181C117.425 100.781 118.25 102.581 117.65 104.197C117.182 105.457 115.989 106.234 114.722 106.234Z" fill="#FEFEFE"/>
<path d="M37.5621 111.176C35.9721 111.176 34.6109 109.965 34.4571 108.349C34.2884 106.631 35.5484 105.105 37.2659 104.94C44.8446 104.212 53.8484 98.1412 64.0259 86.895C64.4721 86.3962 64.8134 86.025 65.0309 85.8C66.2946 84.5062 69.6509 81.0562 73.4309 81.9337C74.9384 82.2825 76.9896 83.445 78.1709 87C78.6171 88.35 79.2209 89.1562 79.9671 89.4C81.3471 89.85 83.4359 88.8112 83.9046 88.4775C84.3509 88.1175 84.9321 87.1762 85.0784 85.7212C85.2209 84.2812 85.0259 81.3487 82.1084 77.8575C80.1659 75.5362 76.5921 74.13 72.8946 74.1675C67.2771 74.235 61.7234 77.37 57.2496 82.9875C46.1421 96.9487 36.6734 99.45 36.2759 99.5475C34.6034 99.96 32.9046 98.9512 32.4846 97.2787C32.0684 95.61 33.0734 93.9225 34.7309 93.495C34.9259 93.435 42.7934 91.1212 52.3596 79.0987C58.0259 71.9812 65.2896 68.01 72.8196 67.92C78.4334 67.8525 83.7396 70.0687 86.9009 73.8487C90.1521 77.7375 91.7121 82.1737 91.2959 86.3437C91.0034 89.2612 89.7171 91.8262 87.7634 93.39C86.6159 94.3087 82.4121 96.645 78.2384 95.4075C76.2846 94.8262 73.6521 93.24 72.2384 88.9687C72.1146 88.5975 71.9984 88.3425 71.9084 88.1737C71.5146 88.3725 70.7534 88.8825 69.5046 90.165C69.3171 90.3562 69.0359 90.6712 68.6571 91.0875C64.4646 95.7225 51.6996 109.83 37.8659 111.161C37.7646 111.169 37.6634 111.176 37.5621 111.176Z" fill="#FEFEFE"/>
<path d="M42.8536 121.657C41.2786 121.657 39.9211 120.469 39.7486 118.864C39.5648 117.154 40.8023 115.616 42.5123 115.425C42.6061 115.417 51.7298 114.3 63.1373 106.654C76.4011 97.7625 92.8373 101.141 100.454 109.372C104.811 114.082 108.985 113.407 109.161 113.374C110.826 113.081 112.476 114.169 112.806 115.841C113.132 117.51 112.094 119.134 110.429 119.494C110.117 119.561 102.749 121.057 95.8673 113.617C90.9436 108.296 78.2423 104.051 66.6173 111.844C53.8336 120.416 43.6186 121.594 43.1911 121.639C43.0786 121.65 42.9661 121.657 42.8536 121.657Z" fill="#FEFEFE"/>
<path d="M56.0452 131.408C54.6052 131.408 53.3077 130.406 52.9927 128.944C52.629 127.256 53.7015 125.595 55.389 125.228C55.479 125.209 64.614 123.199 71.2515 118.778C81.039 112.268 86.8215 116.318 92.4053 120.236C94.3403 121.59 96.339 122.993 98.6603 124.099C100.217 124.845 100.873 126.709 100.127 128.269C99.384 129.825 97.5128 130.485 95.9603 129.735C93.1777 128.404 90.8603 126.784 88.8203 125.351C83.5815 121.676 80.949 119.835 74.7165 123.983C67.0702 129.071 57.1252 131.246 56.7052 131.336C56.484 131.385 56.2627 131.408 56.0452 131.408Z" fill="#FEFEFE"/>
<path d="M72.0841 138.083C71.0079 138.083 69.9579 137.524 69.3766 136.526C68.5141 135.038 69.0166 133.129 70.5054 132.263C71.6266 131.606 81.6279 126.026 87.7704 131.224C89.0866 132.338 89.2516 134.314 88.1341 135.63C87.0166 136.943 85.0441 137.108 83.7279 135.994C81.5491 134.141 75.8904 136.365 73.6479 137.663C73.1529 137.948 72.6166 138.083 72.0841 138.083Z" fill="#FEFEFE"/>
</svg>
