<svg width="150" height="150" viewBox="0 0 150 150" fill="none" xmlns="http://www.w3.org/2000/svg">
<path d="M0 150H150V0H0V150Z" fill="#693286"/>
<path d="M113.239 132.566H42.3827C35.4902 132.566 29.8877 126.964 29.8877 120.075V50.3812C29.8877 48.6562 31.2864 47.2574 33.0114 47.2574C34.7364 47.2574 36.1389 48.6562 36.1389 50.3812V120.075C36.1389 123.517 38.9402 126.319 42.3827 126.319H113.239C114.968 126.319 116.374 124.912 116.374 123.187V115.875C116.374 114.15 117.773 112.751 119.498 112.751C121.223 112.751 122.621 114.15 122.621 115.875V123.187C122.621 128.359 118.414 132.566 113.239 132.566Z" fill="#FEFEFE"/>
<path d="M119.498 101.317C117.773 101.317 116.374 99.9187 116.374 98.1937V28.5075C116.374 25.0613 113.569 22.2563 110.119 22.2563H39.2627C37.5414 22.2563 36.1389 23.6588 36.1389 25.3838V33.195C36.1389 34.92 34.7364 36.3188 33.0114 36.3188C31.2864 36.3188 29.8877 34.92 29.8877 33.195V25.3838C29.8877 20.2125 34.0952 16.005 39.2627 16.005H110.119C117.015 16.005 122.621 21.615 122.621 28.5075V98.1937C122.621 99.9187 121.223 101.317 119.498 101.317Z" fill="#FEFEFE"/>
<path d="M105.484 38.73H47.6404C45.9154 38.73 44.5166 37.3313 44.5166 35.6025C44.5166 33.8775 45.9154 32.4788 47.6404 32.4788H105.484C107.209 32.4788 108.608 33.8775 108.608 35.6025C108.608 37.3313 107.209 38.73 105.484 38.73Z" fill="#FEFEFE"/>
<path d="M105.484 52.9388H47.6404C45.9154 52.9388 44.5166 51.5363 44.5166 49.8113C44.5166 48.0863 45.9154 46.6875 47.6404 46.6875H105.484C107.209 46.6875 108.608 48.0863 108.608 49.8113C108.608 51.5363 107.209 52.9388 105.484 52.9388Z" fill="#FEFEFE"/>
<path d="M105.483 67.1437H55.4547C53.7259 67.1437 52.3271 65.745 52.3271 64.02C52.3271 62.295 53.7259 60.8962 55.4547 60.8962H105.483C107.208 60.8962 108.607 62.295 108.607 64.02C108.607 65.745 107.208 67.1437 105.483 67.1437Z" fill="#FEFEFE"/>
<path d="M99.2329 81.3525H47.6404C45.9154 81.3525 44.5166 79.9537 44.5166 78.2287C44.5166 76.5037 45.9154 75.105 47.6404 75.105H99.2329C100.962 75.105 102.36 76.5037 102.36 78.2287C102.36 79.9537 100.962 81.3525 99.2329 81.3525Z" fill="#FEFEFE"/>
<path d="M99.2329 95.5612H47.6404C45.9154 95.5612 44.5166 94.1625 44.5166 92.4375C44.5166 90.7125 45.9154 89.3137 47.6404 89.3137H99.2329C100.962 89.3137 102.36 90.7125 102.36 92.4375C102.36 94.1625 100.962 95.5612 99.2329 95.5612Z" fill="#FEFEFE"/>
<path d="M105.484 109.774H47.6404C45.9154 109.774 44.5166 108.375 44.5166 106.65C44.5166 104.925 45.9154 103.526 47.6404 103.526H105.484C107.209 103.526 108.608 104.925 108.608 106.65C108.608 108.375 107.209 109.774 105.484 109.774Z" fill="#FEFEFE"/>
<path d="M119.497 101.317C118.699 101.317 117.9 101.014 117.289 100.402L105.611 88.725C104.389 87.5062 104.389 85.5263 105.611 84.3075C106.83 83.085 108.81 83.085 110.029 84.3075L119.497 93.7725L128.962 84.3075C130.185 83.085 132.161 83.085 133.384 84.3075C134.602 85.5263 134.602 87.5062 133.384 88.725L121.706 100.402C121.095 101.014 120.296 101.317 119.497 101.317Z" fill="#FEFEFE"/>
<path d="M44.9511 65.445C44.1523 65.445 43.3536 65.1412 42.7423 64.53L33.0111 54.8025L23.2836 64.53C22.0611 65.7525 20.0811 65.7525 18.8623 64.53C17.6436 63.3112 17.6436 61.3312 18.8623 60.1125L30.8023 48.1725C32.0211 46.95 34.0011 46.95 35.2236 48.1725L47.1636 60.1125C48.3823 61.3312 48.3823 63.3112 47.1636 64.53C46.5523 65.1412 45.7536 65.445 44.9511 65.445Z" fill="#FEFEFE"/>
</svg>
