<svg width="150" height="150" viewBox="0 0 150 150" fill="none" xmlns="http://www.w3.org/2000/svg">
<path d="M0 150H150V0H0V150Z" fill="#ED6D3E"/>
<path d="M116.958 124.705H26.5189C24.7868 124.705 23.3936 123.302 23.3936 121.58V32.8449C23.3936 31.1127 24.7868 29.7195 26.5189 29.7195H116.958C118.69 29.7195 120.083 31.1127 120.083 32.8449V45.1958C120.083 46.9186 118.69 48.3212 116.958 48.3212C115.235 48.3212 113.832 46.9186 113.832 45.1958V35.9703H29.6443V118.454H113.832V78.775C113.832 77.0522 115.235 75.6496 116.958 75.6496C118.69 75.6496 120.083 77.0522 120.083 78.775V121.58C120.083 123.302 118.69 124.705 116.958 124.705Z" fill="#FEFEFE"/>
<path d="M73.513 104.644C73.4754 104.644 73.4283 104.644 73.3907 104.644C72.5623 104.606 71.7809 104.249 71.2161 103.637L49.0653 79.5657L45.4222 83.7925C44.2925 85.101 42.3156 85.2517 41.0071 84.122C39.708 83.0018 39.5574 81.0248 40.687 79.7163L46.6271 72.8254C47.2108 72.1476 48.0486 71.7522 48.943 71.7428C49.8561 71.7052 50.6845 72.0911 51.287 72.7501L73.6919 97.1037L133.63 41.7221C134.901 40.5548 136.878 40.6395 138.045 41.901C139.222 43.1718 139.137 45.1487 137.875 46.3161L75.6406 103.816C75.0569 104.352 74.3038 104.644 73.513 104.644Z" fill="#FEFEFE"/>
</svg>
