<svg width="150" height="150" viewBox="0 0 150 150" fill="none" xmlns="http://www.w3.org/2000/svg">
<path d="M0 150H150V0H0V150Z" fill="#1974B9"/>
<path d="M106.365 71.8763C105.967 63.63 104.002 56.0588 101.254 49.32C105.96 47.0025 110.809 43.9763 115.766 40.1138C123.18 48.765 127.901 59.7863 128.599 71.8763H106.365ZM98.3961 106.17C102.761 108.326 107.111 111.06 111.439 114.39C103.56 121.688 93.4986 126.645 82.3536 128.179C89.1224 120.994 94.4774 113.651 98.3961 106.17ZM51.3336 105.713C55.2749 113.348 60.7049 120.847 67.6124 128.175C56.3886 126.622 46.2674 121.59 38.3661 114.203C40.8411 112.069 45.2961 108.641 51.3336 105.713ZM51.0224 44.1975C45.1574 41.2988 40.8224 37.9275 38.3774 35.7863C46.0199 28.6425 55.7399 23.7 66.5249 21.9825C61.9461 26.88 55.8111 34.4888 51.0224 44.1975ZM83.4374 21.975C94.1361 23.67 103.792 28.5413 111.412 35.5838C107.047 38.9363 102.791 41.5913 98.6699 43.6463C93.9186 34.1963 87.9261 26.7788 83.4374 21.975ZM78.1274 49.575V25.5188C82.2861 29.9063 88.2074 37.0538 92.8724 46.1925C87.7011 48.1538 82.7699 49.2 78.1274 49.575ZM78.1274 71.8763V55.7288C83.5911 55.3688 89.3999 54.1838 95.4824 51.8513C97.9536 57.8925 99.7124 64.6275 100.106 71.8763H78.1274ZM78.1274 94.2075V78.1238H100.084C99.6974 84.8288 98.1336 91.4738 95.3511 98.0438C89.3136 95.745 83.5499 94.5675 78.1274 94.2075ZM78.1274 100.399C82.9724 100.77 87.8136 101.854 92.6436 103.661C89.0699 110.393 84.2249 117.03 78.1274 123.551V100.399ZM58.6461 102.761C63.0524 101.34 67.4624 100.538 71.8761 100.309V123.589C65.6511 116.936 60.7311 110.16 57.1311 103.294C57.6336 103.114 58.1286 102.93 58.6461 102.761ZM71.8761 78.1238V94.1475C65.4486 94.4475 59.6061 95.835 54.4799 97.7175C51.7836 91.2563 50.2611 84.7163 49.8824 78.1238H71.8761ZM71.8761 55.8V71.8763H49.8636C50.2461 64.755 51.9561 58.1363 54.3561 52.1775C59.5086 54.0825 65.3961 55.4963 71.8761 55.8ZM71.8761 49.6875C66.3299 49.44 61.2824 48.2775 56.8461 46.6763C61.5636 37.2788 67.6386 29.9438 71.8761 25.4813V49.6875ZM34.0949 40.275C36.8661 42.6488 41.8461 46.4475 48.5511 49.7025C45.8849 56.3438 43.9949 63.7913 43.6011 71.8763H21.4049C22.0987 59.8613 26.7599 48.9 34.0949 40.275ZM21.4049 78.1238H43.6236C44.0024 85.5675 45.6899 92.925 48.7161 100.159C41.8986 103.444 36.8549 107.302 34.0686 109.695C26.7486 101.074 22.0987 90.1238 21.4049 78.1238ZM115.804 109.845C110.771 105.926 105.855 102.87 101.081 100.538C104.209 93.1763 105.956 85.6988 106.342 78.1238H128.599C127.901 90.195 123.195 101.201 115.804 109.845ZM118.616 33.9413C118.586 33.9038 118.571 33.8663 118.541 33.8325C118.402 33.66 118.245 33.5138 118.08 33.3788C107.171 22.095 91.8974 15.0563 75.0036 15.0563C58.0649 15.0563 42.7611 22.1288 31.8486 33.4575C31.8074 33.4913 31.7624 33.5175 31.7249 33.5513C31.6049 33.6675 31.4999 33.795 31.4024 33.9263C21.2811 44.6625 15.0562 59.115 15.0562 75C15.0562 108.053 41.9474 134.944 75.0036 134.944C108.052 134.944 134.944 108.053 134.944 75C134.944 59.1225 128.726 44.6775 118.616 33.9413Z" fill="#FEFEFE"/>
</svg>
