<svg width="150" height="150" viewBox="0 0 150 150" fill="none" xmlns="http://www.w3.org/2000/svg">
<path d="M0 150H150V0H0V150Z" fill="#F3942E"/>
<path d="M126.428 136.845H35.8542C34.1292 136.845 32.7305 135.446 32.7305 133.721C32.7305 131.996 34.1292 130.598 35.8542 130.598H123.304V67.995C123.304 41.3625 101.637 19.695 75.0005 19.695C48.3642 19.695 26.6967 41.3625 26.6967 67.995V133.721C26.6967 135.446 25.298 136.845 23.573 136.845C21.848 136.845 20.4492 135.446 20.4492 133.721V67.995C20.4492 37.9163 44.918 13.4475 75.0005 13.4475C105.079 13.4475 129.552 37.9163 129.552 67.995V133.721C129.552 135.446 128.153 136.845 126.428 136.845Z" fill="#FEFEFE"/>
<path d="M60.0297 106.511H89.966V86.5125C89.966 78.2588 83.2535 71.5425 74.9997 71.5425C66.746 71.5425 60.0297 78.2588 60.0297 86.5125V106.511ZM93.0935 112.763H56.906C55.181 112.763 53.7822 111.364 53.7822 109.639V86.5125C53.7822 74.8088 63.2997 65.2913 74.9997 65.2913C86.6997 65.2913 96.2172 74.8088 96.2172 86.5125V109.639C96.2172 111.364 94.8185 112.763 93.0935 112.763Z" fill="#FEFEFE"/>
</svg>
