<svg width="150" height="150" viewBox="0 0 150 150" fill="none" xmlns="http://www.w3.org/2000/svg">
<path d="M0 150H150V0H0V150Z" fill="#49AE51"/>
<path d="M116.389 116.696H34.3955L31.3017 104.828H110.73C112.455 104.828 113.854 103.429 113.854 101.704C113.854 99.9788 112.455 98.58 110.73 98.58H29.6742L26.5917 86.7638H114.93C116.655 86.7638 118.054 85.365 118.054 83.6363C118.054 81.9113 116.655 80.5125 114.93 80.5125H24.9642L21.8817 68.6962H54.533C54.5367 68.6962 54.5367 68.6962 54.5405 68.6962H54.5442H96.8967C96.8967 68.6962 96.8967 68.6962 96.9005 68.6962C96.9042 68.6962 96.9042 68.6962 96.908 68.6962H128.569L116.389 116.696ZM136.459 62.445H98.963L84.653 28.95C83.978 27.3637 82.1442 26.625 80.5542 27.3075C78.968 27.9825 78.2292 29.82 78.908 31.4062L92.168 62.445H59.2767L72.533 31.4062C73.208 29.82 72.473 27.9825 70.8867 27.3075C69.2967 26.6287 67.463 27.3637 66.7842 28.95L52.478 62.445H13.5417C11.8167 62.445 10.418 63.8438 10.418 65.5687C10.418 67.2938 11.8167 68.6962 13.5417 68.6962H15.4242L28.958 120.608C29.3142 121.988 30.5592 122.948 31.9805 122.948H118.819C120.252 122.948 121.5 121.976 121.849 120.589L135.015 68.6962H136.459C138.184 68.6962 139.583 67.2938 139.583 65.5687C139.583 63.8438 138.184 62.445 136.459 62.445Z" fill="#FEFEFE"/>
</svg>
