<svg width="150" height="150" viewBox="0 0 150 150" fill="none" xmlns="http://www.w3.org/2000/svg">
<path d="M0 150H150V0H0V150Z" fill="#CF356A"/>
<path d="M115.466 19.6538H34.5337C32.805 19.6538 31.4062 21.0526 31.4062 22.7813V124.181C31.4062 125.906 32.805 127.305 34.5337 127.305H66.1987C67.9237 127.305 69.3225 125.906 69.3225 124.181C69.3225 122.456 67.9237 121.054 66.1987 121.054H37.6575V25.9051H112.342V121.054H110.34C108.615 121.054 107.212 122.456 107.212 124.181C107.212 125.906 108.615 127.305 110.34 127.305H115.466C117.195 127.305 118.594 125.906 118.594 124.181V22.7813C118.594 21.0526 117.195 19.6538 115.466 19.6538Z" fill="#FEFEFE"/>
<path d="M88.4513 120.855C83.1225 120.855 78.7913 116.52 78.7913 111.195C78.7913 105.87 83.1225 101.531 88.4513 101.531C93.7763 101.531 98.1113 105.87 98.1113 111.195C98.1113 116.52 93.7763 120.855 88.4513 120.855ZM104.359 111.195C104.359 102.42 97.2225 95.2838 88.4513 95.2838C79.6763 95.2838 72.54 102.42 72.54 111.195C72.54 116.779 75.4388 121.688 79.8 124.526L76.6838 132.308C76.0388 133.909 76.8188 135.728 78.42 136.369C78.8025 136.523 79.1963 136.598 79.5825 136.598C80.8238 136.598 81.9938 135.855 82.485 134.633L85.6088 126.836C86.5313 127.001 87.48 127.103 88.4513 127.103C89.3738 127.103 90.2775 127.009 91.1588 126.855L94.2713 134.629C94.7588 135.855 95.9325 136.598 97.1738 136.598C97.56 136.598 97.95 136.523 98.3325 136.369C99.9338 135.731 100.714 133.909 100.073 132.308L96.9863 124.598C101.411 121.77 104.359 116.824 104.359 111.195Z" fill="#FEFEFE"/>
<path d="M102.735 35.9738H47.2654C45.5404 35.9738 44.1416 37.3725 44.1416 39.0975C44.1416 40.8225 45.5404 42.2213 47.2654 42.2213H102.735C104.46 42.2213 105.859 40.8225 105.859 39.0975C105.859 37.3725 104.46 35.9738 102.735 35.9738Z" fill="#FEFEFE"/>
<path d="M47.2654 57.8137H97.0691C98.7979 57.8137 100.197 56.415 100.197 54.6863C100.197 52.9613 98.7979 51.5625 97.0691 51.5625H47.2654C45.5404 51.5625 44.1416 52.9613 44.1416 54.6863C44.1416 56.415 45.5404 57.8137 47.2654 57.8137Z" fill="#FEFEFE"/>
<path d="M102.735 67.1512H47.2654C45.5404 67.1512 44.1416 68.55 44.1416 70.275C44.1416 72.0037 45.5404 73.4025 47.2654 73.4025H102.735C104.46 73.4025 105.859 72.0037 105.859 70.275C105.859 68.55 104.46 67.1512 102.735 67.1512Z" fill="#FEFEFE"/>
<path d="M69.2704 82.7437H47.2654C45.5404 82.7437 44.1416 84.1424 44.1416 85.8674C44.1416 87.5924 45.5404 88.9912 47.2654 88.9912H69.2704C70.9991 88.9912 72.3979 87.5924 72.3979 85.8674C72.3979 84.1424 70.9991 82.7437 69.2704 82.7437Z" fill="#FEFEFE"/>
</svg>
