<svg width="340" height="79" viewBox="0 0 340 79" fill="none" xmlns="http://www.w3.org/2000/svg">
<path d="M63.1555 38.2758L49.9021 46.1143H68.0689V14.2063H49.7513L63.1555 38.2758Z" fill="url(#paint0_linear_2_110)"/>
<path d="M49.9885 22.1838H64.878V19.5246H49.9885V22.1838Z" fill="#1F1B20"/>
<path d="M49.9885 28.5657H64.878V25.9066H49.9885V28.5657Z" fill="#1F1B20"/>
<path d="M49.9885 34.946H64.878V32.2885H49.9885V34.946Z" fill="#1F1B20"/>
<path d="M37.792 31.0081L50.7354 23.6471L49.4211 21.3369L36.4777 28.6961L37.792 31.0081Z" fill="url(#paint1_linear_2_110)"/>
<path d="M125.132 44.5883H121.738L119.053 36.8395H109.248L106.875 44.5883H104.105L112.702 18.0782H116.494L125.132 44.5883ZM118.357 34.3532L114.28 21.6113L110.163 34.3532H118.357ZM149.547 44.5883H145.914L137.993 29.9647L131.914 37.5221V44.5883H128.592V18.0782H131.914V33.4589L143.9 18.0782H147.493L140.306 27.3598L149.547 44.5883ZM161.573 44.5883H158.271V20.988H150.682V18.0782H169.191V20.988H161.573V44.5883ZM176.216 42.3746V44.5883H172.897V18.0782H176.216V35.2085C176.216 36.3348 176.171 37.4882 176.078 38.662C176.999 37.0055 178.086 35.3203 179.346 33.5978L188.858 20.6628V18.0782H192.18V44.5883H188.858V29.1483C188.858 28.188 188.906 26.5976 188.999 24.3704C188.244 25.8083 187.149 27.4987 185.716 29.4414L176.216 42.3746ZM198.804 44.5883V18.0782H209.29C211.929 18.0782 213.892 18.7286 215.164 20.0209C216.444 21.3132 217.079 22.8189 217.079 24.5279C217.079 27.5325 215.509 29.5277 212.379 30.5084C214.242 30.986 215.628 31.8414 216.535 33.0744C217.445 34.3006 217.896 35.6929 217.896 37.2494C217.896 39.331 217.193 41.0755 215.787 42.4813C214.383 43.8854 212.215 44.5883 209.29 44.5883H198.804ZM202.005 29.4414H207.779C210.172 29.4414 211.769 28.9841 212.572 28.0678C213.373 27.1599 213.778 26.0861 213.778 24.8531C213.778 23.6404 213.348 22.6529 212.486 21.9026C211.624 21.154 210.338 20.7763 208.627 20.7763H202.005V29.4414ZM202.005 41.6785H209.119C210.848 41.6785 212.194 41.2534 213.136 40.4116C214.083 39.5698 214.554 38.4757 214.554 37.1309C214.554 36.1824 214.342 35.3084 213.912 34.4988C213.487 33.6909 212.884 33.0676 212.108 32.6222C211.332 32.1852 210.172 31.9667 208.627 31.9667H202.005V41.6785Z" fill="#3B5993"/>
<path d="M107.785 60.8717L108.269 62.8093H109.238L107.409 55.2757H106.01L104.181 62.8093H105.15L105.634 60.8717H107.785ZM107.624 60.118H105.795L106.688 56.3512H106.732L107.624 60.118ZM113.113 58.7512C113.327 58.6089 113.496 58.4548 113.623 58.2905C113.749 58.1279 113.838 57.9517 113.894 57.7637C113.948 57.5757 113.976 57.3742 113.974 57.1591C113.976 56.7102 113.899 56.3393 113.752 56.0446C113.601 55.7516 113.368 55.5297 113.051 55.3858C112.731 55.2401 112.323 55.1673 111.821 55.1673C111.499 55.1656 111.201 55.1825 110.92 55.2147C110.639 55.2469 110.366 55.3045 110.099 55.3841V62.7009C110.366 62.7805 110.639 62.8381 110.92 62.8703C111.201 62.9025 111.499 62.9177 111.821 62.916C112.277 62.916 112.665 62.8754 112.98 62.7924C113.295 62.7077 113.552 62.579 113.745 62.4045C113.94 62.2318 114.079 62.0065 114.167 61.7355C114.255 61.4628 114.299 61.141 114.296 60.7633C114.296 60.5347 114.275 60.3128 114.231 60.1011C114.189 59.8894 114.121 59.6929 114.028 59.5167C113.935 59.3406 113.811 59.1898 113.661 59.0628C113.512 58.9392 113.329 58.8511 113.113 58.7952V58.7512ZM111.93 59.2034C112.251 59.2017 112.516 59.2525 112.722 59.3558C112.929 59.4608 113.083 59.6268 113.181 59.8572C113.279 60.0858 113.329 60.389 113.329 60.7633C113.329 61.1071 113.279 61.3866 113.181 61.6C113.083 61.8134 112.929 61.9709 112.722 62.0692C112.516 62.1674 112.251 62.2182 111.93 62.2165H111.067V59.2034H111.93ZM111.067 58.5039V55.8668H111.606C112.089 55.8668 112.443 55.9752 112.67 56.1903C112.895 56.4054 113.007 56.7289 113.005 57.1591C113.007 57.6147 112.895 57.9534 112.67 58.1736C112.443 58.3938 112.089 58.5056 111.606 58.5039H111.067ZM114.834 56.0294H116.557V62.8093H117.526V56.0294H119.246V55.2757H114.834V56.0294ZM122.207 55.1673C121.916 55.1656 121.648 55.2045 121.408 55.2807C121.165 55.3587 120.952 55.4874 120.764 55.6635C120.576 55.8397 120.418 56.0785 120.288 56.3766C120.159 56.6747 120.061 57.0422 119.993 57.4809C119.927 57.9213 119.892 58.4412 119.892 59.0425C119.892 59.6421 119.927 60.1637 119.993 60.6024C120.061 61.0411 120.159 61.4103 120.288 61.7067C120.418 62.0048 120.576 62.2436 120.764 62.4198C120.952 62.5976 121.165 62.7246 121.408 62.8026C121.648 62.8805 121.916 62.9177 122.207 62.916C122.497 62.9177 122.764 62.8805 123.005 62.8026C123.247 62.7246 123.46 62.5976 123.648 62.4198C123.836 62.2436 123.994 62.0048 124.124 61.7067C124.253 61.4103 124.351 61.0411 124.419 60.6024C124.485 60.1637 124.521 59.6421 124.521 59.0425C124.521 58.4412 124.485 57.9213 124.419 57.4809C124.351 57.0422 124.253 56.6747 124.124 56.3766C123.994 56.0785 123.836 55.8397 123.648 55.6635C123.46 55.4874 123.247 55.3587 123.005 55.2807C122.764 55.2045 122.497 55.1656 122.207 55.1673ZM122.207 62.2707C122.066 62.2724 121.929 62.2436 121.797 62.1827C121.667 62.1217 121.545 62.0218 121.431 61.8778C121.316 61.7338 121.218 61.5407 121.133 61.2951C121.047 61.0479 120.981 60.7413 120.935 60.3687C120.886 59.9995 120.861 59.5574 120.861 59.0425C120.861 58.5276 120.886 58.0838 120.935 57.7146C120.981 57.3437 121.047 57.0354 121.133 56.7898C121.218 56.5443 121.316 56.3478 121.431 56.2055C121.545 56.0632 121.667 55.9616 121.797 55.9023C121.929 55.8397 122.066 55.8126 122.207 55.8143C122.346 55.8126 122.483 55.8397 122.615 55.9023C122.746 55.9616 122.868 56.0632 122.983 56.2055C123.096 56.3478 123.194 56.5443 123.279 56.7898C123.366 57.0354 123.432 57.3437 123.479 57.7146C123.526 58.0838 123.552 58.5276 123.552 59.0425C123.552 59.5574 123.526 59.9995 123.479 60.3687C123.432 60.7413 123.366 61.0479 123.279 61.2951C123.194 61.5407 123.096 61.7338 122.983 61.8778C122.868 62.0218 122.746 62.1217 122.615 62.1827C122.483 62.2436 122.346 62.2724 122.207 62.2707ZM129.363 61.4628L130.816 57.2133H130.869L131.192 62.8093H132.161L131.731 55.2757H130.547L128.901 60.118H128.857L127.21 55.2757H126.026L125.596 62.8093H126.565L126.887 57.2133H126.941L128.394 61.4628H129.363ZM136.519 60.8717L137.003 62.8093H137.972L136.143 55.2757H134.744L132.915 62.8093H133.882L134.366 60.8717H136.519ZM136.358 60.118H134.529L135.421 56.3512H135.464L136.358 60.118ZM138.294 56.0294H140.017V62.8093H140.985V56.0294H142.708V55.2757H138.294V56.0294ZM146.797 62.8093H147.765V55.2757H146.636L144.483 60.7633H144.429V55.2757H143.46V62.8093H144.537L146.742 57.32H146.797V62.8093ZM148.626 62.2165V62.7009C148.738 62.7365 148.875 62.7738 149.041 62.8059C149.207 62.8381 149.385 62.8635 149.574 62.8839C149.764 62.9059 149.952 62.916 150.133 62.916C150.589 62.916 150.975 62.8754 151.292 62.7924C151.607 62.7077 151.864 62.579 152.057 62.4045C152.25 62.2318 152.391 62.0065 152.479 61.7355C152.567 61.4628 152.609 61.141 152.608 60.7633C152.608 60.5465 152.586 60.3365 152.543 60.1316C152.499 59.9266 152.432 59.7386 152.338 59.5642C152.245 59.3897 152.123 59.2407 151.973 59.117C151.822 58.9934 151.639 58.9036 151.424 58.8477V58.8054C151.747 58.6462 151.989 58.4328 152.15 58.1635C152.311 57.8958 152.393 57.5605 152.393 57.1591C152.394 56.7102 152.318 56.3393 152.164 56.0446C152.013 55.7516 151.769 55.5297 151.436 55.3858C151.104 55.2401 150.668 55.1673 150.133 55.1673C150.023 55.1673 149.904 55.1757 149.777 55.1859C149.65 55.1978 149.523 55.2147 149.393 55.235C149.264 55.2553 149.142 55.279 149.027 55.3045C148.915 55.3299 148.815 55.357 148.734 55.3841V55.8668H150.025C150.507 55.8668 150.861 55.9752 151.088 56.1903C151.315 56.4054 151.425 56.7289 151.424 57.1591C151.425 57.6147 151.315 57.9534 151.088 58.1736C150.861 58.3938 150.507 58.5056 150.025 58.5039H149.379V59.2576H150.133C150.489 59.2559 150.78 59.3067 151.002 59.4083C151.224 59.51 151.386 59.6743 151.488 59.8944C151.591 60.1163 151.641 60.4076 151.639 60.7633C151.641 61.1038 151.591 61.3815 151.488 61.5949C151.386 61.81 151.224 61.9676 151.002 62.0675C150.78 62.1674 150.489 62.2182 150.133 62.2165H148.626ZM156.859 60.8717L157.343 62.8093H158.312L156.481 55.2757H155.082L153.253 62.8093H154.222L154.706 60.8717H156.859ZM156.698 60.118H154.867L155.761 56.3512H155.804L156.698 60.118ZM162.992 62.8093C163.046 63.4546 163.154 63.9932 163.315 64.4234H163.908V62.0556H163.261V55.2757H162.292V62.0556H160.141V55.2757H159.173V62.8093H162.992ZM168.105 62.8093H169.072V55.2757H167.943L165.79 60.7633H165.737V55.2757H164.769V62.8093H165.844L168.051 57.32H168.105V62.8093ZM172.732 58.9883C172.443 58.9866 172.185 58.9189 171.958 58.7867C171.733 58.6546 171.555 58.4717 171.425 58.238C171.293 58.0059 171.227 57.7349 171.225 57.4284C171.227 57.1218 171.293 56.8508 171.425 56.6171C171.555 56.3817 171.733 56.2004 171.958 56.0683C172.185 55.9379 172.443 55.8685 172.732 55.8668H173.269V58.9883H172.732ZM171.709 59.515C171.616 59.5574 171.53 59.6048 171.455 59.6624C171.379 59.7183 171.313 59.7911 171.252 59.8809C171.191 59.9707 171.137 60.0875 171.09 60.2298C171.04 60.3738 170.996 60.5499 170.956 60.7633C170.905 61.0462 170.847 61.285 170.786 61.4848C170.725 61.683 170.651 61.8439 170.568 61.9676C170.481 62.0912 170.373 62.1827 170.244 62.2402C170.117 62.2978 169.958 62.3249 169.772 62.3249V62.8093C169.882 62.8381 169.999 62.8601 170.122 62.8822C170.246 62.9042 170.363 62.9143 170.471 62.916C170.685 62.916 170.871 62.8754 171.022 62.7924C171.178 62.7077 171.308 62.579 171.415 62.4045C171.525 62.2318 171.62 62.0065 171.701 61.7355C171.781 61.4628 171.857 61.141 171.925 60.7633C171.96 60.5635 172.008 60.3958 172.063 60.2637C172.118 60.1316 172.194 60.0265 172.29 59.9503C172.387 59.8741 172.516 59.8182 172.673 59.7877C172.831 59.7556 173.029 59.7403 173.269 59.742V62.8093H174.238V55.3841C173.971 55.3045 173.698 55.2469 173.418 55.2147C173.137 55.1825 172.837 55.1656 172.517 55.1673C172.048 55.169 171.645 55.2604 171.31 55.4416C170.973 55.6229 170.712 55.8837 170.531 56.2208C170.349 56.5561 170.258 56.9592 170.256 57.4284C170.26 57.8027 170.307 58.116 170.4 58.3684C170.493 58.6191 170.614 58.8223 170.761 58.9747C170.91 59.1289 171.066 59.2424 171.232 59.3203C171.399 59.3982 171.559 59.4473 171.709 59.4727V59.515ZM181.772 58.7512C181.985 58.6089 182.155 58.4548 182.283 58.2905C182.409 58.1279 182.498 57.9517 182.553 57.7637C182.607 57.5757 182.634 57.3742 182.632 57.1591C182.634 56.7102 182.559 56.3393 182.41 56.0446C182.26 55.7516 182.026 55.5297 181.709 55.3858C181.389 55.2401 180.981 55.1673 180.48 55.1673C180.159 55.1656 179.86 55.1825 179.58 55.2147C179.299 55.2469 179.026 55.3045 178.759 55.3841V62.7009C179.026 62.7805 179.299 62.8381 179.58 62.8703C179.86 62.9025 180.159 62.9177 180.48 62.916C180.935 62.916 181.323 62.8754 181.638 62.7924C181.955 62.7077 182.211 62.579 182.405 62.4045C182.598 62.2318 182.739 62.0065 182.827 61.7355C182.913 61.4628 182.957 61.141 182.956 60.7633C182.956 60.5347 182.934 60.3128 182.891 60.1011C182.847 59.8894 182.78 59.6929 182.686 59.5167C182.593 59.3406 182.471 59.1898 182.321 59.0628C182.17 58.9392 181.987 58.8511 181.772 58.7952V58.7512ZM180.588 59.2034C180.911 59.2017 181.174 59.2525 181.381 59.3558C181.589 59.4608 181.741 59.6268 181.84 59.8572C181.938 60.0858 181.987 60.389 181.987 60.7633C181.987 61.1071 181.938 61.3866 181.84 61.6C181.741 61.8134 181.589 61.9709 181.381 62.0692C181.174 62.1674 180.911 62.2182 180.588 62.2165H179.728V59.2034H180.588ZM179.728 58.5039V55.8668H180.264C180.747 55.8668 181.101 55.9752 181.328 56.1903C181.555 56.4054 181.665 56.7289 181.663 57.1591C181.665 57.6147 181.555 57.9534 181.328 58.1736C181.101 58.3938 180.747 58.5056 180.264 58.5039H179.728ZM187.205 60.8717L187.69 62.8093H188.659L186.829 55.2757H185.43L183.601 62.8093H184.57L185.054 60.8717H187.205ZM187.044 60.118H185.215L186.108 56.3512H186.152L187.044 60.118ZM193.286 55.2757H192.319V62.0556H190.488V55.2757H189.521V62.8093H196.084V55.2757H195.115V62.0556H193.286V55.2757ZM198.345 59.2576H200.713V58.5039H198.345V56.0294H201.035V55.2757H197.376V62.8093H201.035V62.0556H198.345V59.2576ZM202.003 62.8093H202.972V56.0294H205.34V55.2757H202.003V62.8093ZM208.299 55.1673C208.008 55.1656 207.742 55.2045 207.501 55.2807C207.259 55.3587 207.046 55.4874 206.858 55.6635C206.668 55.8397 206.51 56.0785 206.382 56.3766C206.253 56.6747 206.153 57.0422 206.085 57.4809C206.019 57.9213 205.985 58.4412 205.985 59.0425C205.985 59.6421 206.019 60.1637 206.085 60.6024C206.153 61.0411 206.253 61.4103 206.382 61.7067C206.51 62.0048 206.668 62.2436 206.858 62.4198C207.046 62.5976 207.259 62.7246 207.501 62.8026C207.742 62.8805 208.008 62.9177 208.299 62.916C208.59 62.9177 208.856 62.8805 209.097 62.8026C209.339 62.7246 209.552 62.5976 209.74 62.4198C209.93 62.2436 210.087 62.0048 210.216 61.7067C210.345 61.4103 210.443 61.0411 210.513 60.6024C210.579 60.1637 210.613 59.6421 210.613 59.0425C210.613 58.4412 210.579 57.9213 210.513 57.4809C210.443 57.0422 210.345 56.6747 210.216 56.3766C210.087 56.0785 209.93 55.8397 209.74 55.6635C209.552 55.4874 209.339 55.3587 209.097 55.2807C208.856 55.2045 208.59 55.1656 208.299 55.1673ZM208.299 62.2707C208.158 62.2724 208.023 62.2436 207.891 62.1827C207.759 62.1217 207.637 62.0218 207.525 61.8778C207.41 61.7338 207.31 61.5407 207.227 61.2951C207.14 61.0479 207.074 60.7413 207.027 60.3687C206.979 59.9995 206.954 59.5574 206.954 59.0425C206.954 58.5276 206.979 58.0838 207.027 57.7146C207.074 57.3437 207.14 57.0354 207.227 56.7898C207.31 56.5443 207.41 56.3478 207.525 56.2055C207.637 56.0632 207.759 55.9616 207.891 55.9023C208.023 55.8397 208.158 55.8126 208.299 55.8143C208.439 55.8126 208.575 55.8397 208.707 55.9023C208.839 55.9616 208.961 56.0632 209.075 56.2055C209.188 56.3478 209.286 56.5443 209.371 56.7898C209.457 57.0354 209.523 57.3437 209.573 57.7146C209.618 58.0838 209.644 58.5276 209.644 59.0425C209.644 59.5574 209.618 59.9995 209.573 60.3687C209.523 60.7413 209.457 61.0479 209.371 61.2951C209.286 61.5407 209.188 61.7338 209.075 61.8778C208.961 62.0218 208.839 62.1217 208.707 62.1827C208.575 62.2436 208.439 62.2724 208.299 62.2707ZM215.993 56.0294H218.792V55.2757H215.025V62.7009C215.292 62.7805 215.565 62.8381 215.846 62.8703C216.126 62.9025 216.425 62.9177 216.747 62.916C217.318 62.9177 217.779 62.8432 218.126 62.6874C218.473 62.5333 218.727 62.2843 218.883 61.9438C219.04 61.6034 219.118 61.1563 219.115 60.6024C219.113 60.0486 219.044 59.6014 218.907 59.261C218.769 58.9205 218.575 58.6733 218.317 58.5191C218.062 58.3616 217.753 58.2871 217.392 58.2888C217.265 58.2888 217.12 58.2939 216.959 58.3057C216.796 58.3159 216.632 58.3277 216.463 58.3447C216.297 58.3599 216.139 58.3786 215.993 58.3972V56.0294ZM216.747 58.9883C217.069 58.9866 217.333 59.0391 217.54 59.1441C217.748 59.2491 217.901 59.4202 217.999 59.6573C218.097 59.8944 218.146 60.2095 218.146 60.6024C218.146 60.9954 218.097 61.3087 217.999 61.5475C217.901 61.7846 217.748 61.954 217.54 62.0607C217.333 62.1657 217.069 62.2182 216.747 62.2165H215.993V58.9883H216.747ZM223.527 62.8093H224.494V55.2757H223.365L221.214 60.7633H221.159V55.2757H220.191V62.8093H221.266L223.473 57.32H223.527V62.8093ZM225.356 62.2165V62.7009C225.466 62.7365 225.605 62.7738 225.77 62.8059C225.937 62.8381 226.115 62.8635 226.305 62.8839C226.495 62.9059 226.681 62.916 226.862 62.916C227.318 62.916 227.706 62.8754 228.021 62.7924C228.337 62.7077 228.593 62.579 228.786 62.4045C228.981 62.2318 229.12 62.0065 229.208 61.7355C229.296 61.4628 229.34 61.141 229.338 60.7633C229.338 60.5465 229.316 60.3365 229.274 60.1316C229.23 59.9266 229.162 59.7386 229.069 59.5642C228.976 59.3897 228.854 59.2407 228.703 59.117C228.552 58.9934 228.369 58.9036 228.154 58.8477V58.8054C228.476 58.6462 228.718 58.4328 228.881 58.1635C229.042 57.8958 229.122 57.5605 229.122 57.1591C229.125 56.7102 229.049 56.3393 228.895 56.0446C228.742 55.7516 228.498 55.5297 228.166 55.3858C227.833 55.2401 227.399 55.1673 226.862 55.1673C226.754 55.1673 226.635 55.1757 226.508 55.1859C226.379 55.1978 226.252 55.2147 226.124 55.235C225.995 55.2553 225.873 55.279 225.758 55.3045C225.644 55.3299 225.546 55.357 225.463 55.3841V55.8668H226.755C227.238 55.8668 227.59 55.9752 227.819 56.1903C228.044 56.4054 228.156 56.7289 228.154 57.1591C228.156 57.6147 228.044 57.9534 227.819 58.1736C227.59 58.3938 227.238 58.5056 226.755 58.5039H226.11V59.2576H226.862C227.219 59.2559 227.511 59.3067 227.733 59.4083C227.953 59.51 228.115 59.6743 228.219 59.8944C228.32 60.1163 228.371 60.4076 228.369 60.7633C228.371 61.1038 228.32 61.3815 228.219 61.5949C228.115 61.81 227.953 61.9676 227.733 62.0675C227.511 62.1674 227.219 62.2182 226.862 62.2165H225.356ZM233.642 55.2757V58.6123H231.383V55.2757H230.414V62.8093H231.383V59.3643H233.642V62.8093H234.611V55.2757H233.642ZM236.87 59.2576H239.238V58.5039H236.87V56.0294H239.562V55.2757H235.901V62.8093H239.562V62.0556H236.87V59.2576ZM242.79 62.916C243.007 62.916 243.218 62.9059 243.423 62.8839C243.63 62.8635 243.816 62.8381 243.986 62.8059C244.155 62.7738 244.294 62.7365 244.404 62.7009V62.2165H243.005C242.812 62.2182 242.631 62.1894 242.465 62.1285C242.3 62.0692 242.151 61.9692 242.019 61.827C241.885 61.6864 241.772 61.4933 241.679 61.2511C241.586 61.0089 241.514 60.7057 241.465 60.345C241.416 59.9808 241.391 59.5455 241.391 59.0425C241.391 58.5378 241.416 58.1042 241.464 57.74C241.513 57.3776 241.582 57.0744 241.672 56.8322C241.763 56.59 241.87 56.3986 241.995 56.2563C242.119 56.1157 242.256 56.0141 242.41 55.9548C242.561 55.8939 242.725 55.8651 242.897 55.8668H244.296V55.3841C244.187 55.3468 244.047 55.3112 243.879 55.279C243.708 55.2469 243.522 55.2198 243.315 55.1994C243.112 55.1791 242.9 55.1673 242.681 55.1673C242.402 55.1656 242.145 55.2045 241.909 55.2807C241.675 55.3587 241.465 55.4874 241.282 55.6635C241.098 55.8397 240.942 56.0785 240.815 56.3766C240.688 56.6747 240.59 57.0422 240.522 57.4809C240.456 57.9213 240.422 58.4412 240.422 59.0425C240.422 59.6421 240.456 60.1637 240.524 60.6024C240.591 61.0411 240.691 61.4103 240.822 61.7067C240.954 62.0048 241.115 62.2436 241.304 62.4198C241.496 62.5976 241.718 62.7246 241.965 62.8026C242.214 62.8805 242.488 62.9177 242.79 62.916ZM248.547 60.8717L249.031 62.8093H250L248.171 55.2757H246.772L244.943 62.8093H245.91L246.394 60.8717H248.547ZM248.386 60.118H246.557L247.449 56.3512H247.493L248.386 60.118Z" fill="#004086"/>
<path d="M25 18L54.9653 35.1198L47.5429 48.2267L49.7998 46.7045L54.3094 43.9474L63.9909 38.1685L48.0628 11.2549L46.1791 8.08676L44.5 5.5L25 18Z" fill="url(#paint2_linear_2_110)"/>
<path d="M44.7487 33.034L51.7111 28.6493L50.2723 26.4109L43.3106 30.7979L44.7487 33.034Z" fill="url(#paint3_linear_2_110)"/>
<path d="M38.6377 28.4665L47.9513 22.9794L46.5125 20.741L37.1996 26.2304L38.6377 28.4665Z" fill="url(#paint4_linear_2_110)"/>
<path d="M31.8002 24.3441L44.2296 16.7059L42.7907 14.4675L30.3621 22.108L31.8002 24.3441Z" fill="url(#paint5_linear_2_110)"/>
<path d="M11.1108 35.4778H46.2657V52.2101L47.4851 49.7762L50.0613 45.1608L55.6607 35.3745L28.5747 19.7414L25.3787 17.9054L22.2284 16.1558L11.1108 35.4778Z" fill="url(#paint6_linear_2_110)"/>
<path d="M34.4587 38.5654L38.5525 31.4281L36.2321 30.1256L32.14 37.2647L34.4587 38.5654Z" fill="url(#paint7_linear_2_110)"/>
<path d="M26.9196 37.3965L32.5731 28.1829L30.2527 26.8804L24.6009 36.0957L26.9196 37.3965Z" fill="url(#paint8_linear_2_110)"/>
<path d="M18.9473 36.9612L26.3443 24.3869L24.0239 23.0844L16.6286 35.6605L18.9473 36.9612Z" fill="url(#paint9_linear_2_110)"/>
<path d="M13.294 73.7677H33.5018V70.0449H13.294V73.7677Z" fill="#3889FF"/>
<path d="M89.6351 78.0206H88.8086V1.97595H89.6351V78.0206Z" fill="#7FA4CD"/>
<path d="M0 35.4778V65.7903H46.2657V35.4778H0ZM3.19097 38.6688H43.0747V62.5993H3.19097V38.6688Z" fill="#66C1FF"/>
<path fill-rule="evenodd" clip-rule="evenodd" d="M272.472 62V56.4H270.056V57.44H271.176V62H272.472ZM274.421 61.784C274.789 61.9707 275.202 62.064 275.661 62.064C276.114 62.064 276.509 61.968 276.845 61.776C277.186 61.584 277.434 61.3173 277.589 60.976L276.621 60.448C276.402 60.8427 276.079 61.04 275.653 61.04C275.327 61.04 275.058 60.9333 274.845 60.72C274.631 60.5067 274.525 60.216 274.525 59.848C274.525 59.48 274.631 59.1893 274.845 58.976C275.058 58.7627 275.327 58.656 275.653 58.656C276.074 58.656 276.397 58.8533 276.621 59.248L277.589 58.728C277.434 58.376 277.186 58.1067 276.845 57.92C276.509 57.728 276.114 57.632 275.661 57.632C275.202 57.632 274.789 57.728 274.421 57.92C274.058 58.1067 273.773 58.368 273.565 58.704C273.362 59.04 273.261 59.4213 273.261 59.848C273.261 60.2747 273.362 60.656 273.565 60.992C273.773 61.328 274.058 61.592 274.421 61.784ZM278.186 58.968C278.335 59.1173 278.519 59.192 278.738 59.192C278.956 59.192 279.14 59.1173 279.29 58.968C279.439 58.8187 279.514 58.632 279.514 58.408C279.514 58.1787 279.439 57.9947 279.29 57.856C279.14 57.712 278.956 57.64 278.738 57.64C278.519 57.64 278.335 57.712 278.186 57.856C278.036 57.9947 277.962 58.1787 277.962 58.408C277.962 58.632 278.036 58.8187 278.186 58.968ZM278.186 61.84C278.335 61.9893 278.519 62.064 278.738 62.064C278.956 62.064 279.14 61.9893 279.29 61.84C279.439 61.6907 279.514 61.504 279.514 61.28C279.514 61.0507 279.439 60.8667 279.29 60.728C279.14 60.584 278.956 60.512 278.738 60.512C278.519 60.512 278.335 60.584 278.186 60.728C278.036 60.8667 277.962 61.0507 277.962 61.28C277.962 61.504 278.036 61.6907 278.186 61.84ZM285.777 62.08C286.604 62.0213 287.238 61.8 287.681 61.416C288.129 61.0267 288.353 60.4987 288.353 59.832C288.353 59.176 288.129 58.6613 287.681 58.288C287.238 57.9147 286.604 57.6987 285.777 57.64V56.064H284.633V57.64C283.796 57.6987 283.156 57.912 282.713 58.28C282.276 58.648 282.057 59.1653 282.057 59.832C282.057 60.5093 282.278 61.04 282.721 61.424C283.169 61.8027 283.806 62.0213 284.633 62.08V63.552H285.777V62.08ZM283.593 60.72C283.374 60.512 283.265 60.216 283.265 59.832C283.265 59.464 283.374 59.1813 283.593 58.984C283.812 58.7813 284.158 58.656 284.633 58.608V61.112C284.158 61.0587 283.812 60.928 283.593 60.72ZM286.817 60.72C286.598 60.928 286.252 61.0587 285.777 61.112V58.608C286.252 58.656 286.598 58.7813 286.817 58.984C287.041 59.1813 287.153 59.464 287.153 59.832C287.153 60.216 287.041 60.512 286.817 60.72ZM292.702 57.912C292.377 57.7253 292.014 57.632 291.614 57.632C291.022 57.632 290.571 57.8187 290.262 58.192V57.696H289.07V63.552H290.318V61.544C290.633 61.8907 291.065 62.064 291.614 62.064C292.014 62.064 292.377 61.9733 292.702 61.792C293.033 61.6053 293.291 61.3467 293.478 61.016C293.665 60.68 293.758 60.2907 293.758 59.848C293.758 59.4053 293.665 59.0187 293.478 58.688C293.291 58.352 293.033 58.0933 292.702 57.912ZM292.182 60.72C291.979 60.9333 291.718 61.04 291.398 61.04C291.078 61.04 290.814 60.9333 290.606 60.72C290.403 60.5013 290.302 60.2107 290.302 59.848C290.302 59.4853 290.403 59.1973 290.606 58.984C290.814 58.7653 291.078 58.656 291.398 58.656C291.718 58.656 291.979 58.7653 292.182 58.984C292.39 59.1973 292.494 59.4853 292.494 59.848C292.494 60.2107 292.39 60.5013 292.182 60.72ZM297.651 58.112C297.293 57.792 296.781 57.632 296.115 57.632C295.768 57.632 295.429 57.6773 295.099 57.768C294.773 57.8587 294.493 57.9867 294.259 58.152L294.707 59.024C294.861 58.9013 295.048 58.8053 295.267 58.736C295.491 58.6613 295.717 58.624 295.947 58.624C296.277 58.624 296.525 58.6987 296.691 58.848C296.856 58.992 296.939 59.2 296.939 59.472H295.947C295.317 59.472 294.851 59.5867 294.547 59.816C294.248 60.0453 294.099 60.36 294.099 60.76C294.099 61.0107 294.163 61.2347 294.291 61.432C294.419 61.6293 294.603 61.784 294.843 61.896C295.088 62.008 295.376 62.064 295.707 62.064C296.347 62.064 296.784 61.864 297.019 61.464V62H298.187V59.544C298.187 58.904 298.008 58.4267 297.651 58.112ZM296.587 61.08C296.421 61.176 296.232 61.224 296.019 61.224C295.8 61.224 295.627 61.1787 295.499 61.088C295.376 60.992 295.315 60.864 295.315 60.704C295.315 60.368 295.571 60.2 296.083 60.2H296.939V60.64C296.869 60.832 296.752 60.9787 296.587 61.08ZM300.391 57.696H299.151V62H300.391V60.392H302.263V62H303.511V57.696H302.263V59.376H300.391V57.696ZM307.209 62H308.457V57.696H307.209V59.504C306.921 59.6427 306.615 59.712 306.289 59.712C306.033 59.712 305.836 59.6533 305.697 59.536C305.564 59.4187 305.497 59.2293 305.497 58.968V57.696H304.249V59.048C304.249 59.6027 304.396 60.0133 304.689 60.28C304.988 60.5413 305.428 60.672 306.009 60.672C306.447 60.672 306.847 60.5813 307.209 60.4V62ZM312.744 58.112C312.386 57.792 311.874 57.632 311.208 57.632C310.861 57.632 310.522 57.6773 310.192 57.768C309.866 57.8587 309.586 57.9867 309.352 58.152L309.8 59.024C309.954 58.9013 310.141 58.8053 310.36 58.736C310.584 58.6613 310.81 58.624 311.04 58.624C311.37 58.624 311.618 58.6987 311.784 58.848C311.949 58.992 312.032 59.2 312.032 59.472H311.04C310.41 59.472 309.944 59.5867 309.64 59.816C309.341 60.0453 309.192 60.36 309.192 60.76C309.192 61.0107 309.256 61.2347 309.384 61.432C309.512 61.6293 309.696 61.784 309.936 61.896C310.181 62.008 310.469 62.064 310.8 62.064C311.44 62.064 311.877 61.864 312.112 61.464V62H313.28V59.544C313.28 58.904 313.101 58.4267 312.744 58.112ZM311.68 61.08C311.514 61.176 311.325 61.224 311.112 61.224C310.893 61.224 310.72 61.1787 310.592 61.088C310.469 60.992 310.408 60.864 310.408 60.704C310.408 60.368 310.664 60.2 311.176 60.2H312.032V60.64C311.962 60.832 311.845 60.9787 311.68 61.08ZM315.484 57.696H314.244V62H315.396L317.484 59.44V62H318.724V57.696H317.58L315.484 60.256V57.696ZM314.988 55.992C314.993 56.8187 315.465 57.232 316.404 57.232C317.348 57.232 317.822 56.8187 317.828 55.992H316.996C316.996 56.1787 316.942 56.3253 316.836 56.432C316.734 56.5333 316.588 56.584 316.396 56.584C316.204 56.584 316.057 56.5333 315.956 56.432C315.86 56.3253 315.809 56.1787 315.804 55.992H314.988ZM323.148 60.128C323.01 59.9627 322.812 59.84 322.556 59.76C322.77 59.664 322.938 59.536 323.06 59.376C323.183 59.2107 323.244 59.0267 323.244 58.824C323.244 58.5787 323.156 58.3653 322.98 58.184C322.804 57.9973 322.562 57.856 322.252 57.76C321.948 57.664 321.602 57.616 321.212 57.616C320.647 57.616 320.066 57.7467 319.468 58.008L319.772 58.872C320.263 58.6747 320.716 58.576 321.132 58.576C321.404 58.576 321.612 58.6133 321.756 58.688C321.906 58.7627 321.98 58.8693 321.98 59.008C321.98 59.1413 321.922 59.2427 321.804 59.312C321.687 59.3813 321.519 59.416 321.3 59.416H320.532V60.192H321.412C321.636 60.192 321.807 60.2293 321.924 60.304C322.042 60.3733 322.1 60.4773 322.1 60.616C322.1 60.776 322.015 60.9013 321.844 60.992C321.679 61.0773 321.45 61.12 321.156 61.12C320.607 61.12 320.106 61.0107 319.652 60.792L319.316 61.664C319.594 61.8027 319.895 61.9067 320.22 61.976C320.546 62.0453 320.876 62.08 321.212 62.08C321.623 62.08 321.991 62.024 322.316 61.912C322.642 61.8 322.898 61.6427 323.084 61.44C323.271 61.232 323.364 60.992 323.364 60.72C323.364 60.4907 323.292 60.2933 323.148 60.128ZM325.392 57.696H324.152V62H325.304L327.392 59.44V62H328.632V57.696H327.488L325.392 60.256V57.696ZM330.952 57.696H329.712V62H330.952V60.392H332.824V62H334.072V57.696H332.824V59.376H330.952V57.696ZM336.387 58.72H338.595V57.696H335.147V62H336.387V58.72ZM299.155 47.4898C300.461 47.8656 302.117 48.1156 303.553 48.2108C303.982 48.2389 305.898 48.2554 306.336 48.2554H339.298V53H306.281C305.672 52.9977 303.584 52.9742 302.986 52.9296C301.225 52.7969 299.246 52.4799 297.634 52.0032C297.137 51.8517 295.671 51.2987 294.65 50.7621C288.995 47.7305 285.133 41.7965 285.133 34.9736C285.133 25.0769 293.239 17.0282 303.198 17.0282C313.098 17.0282 321.16 24.9794 321.261 34.7904H316.467C316.365 27.6048 310.454 21.7858 303.198 21.7858C295.878 21.7858 289.927 27.7057 289.927 34.9736C289.927 40.2725 293.094 44.8398 297.64 46.9321C297.898 47.0495 298.911 47.4194 299.155 47.4898ZM303.827 40.721C304.164 40.7492 305.987 40.7609 306.336 40.7609H339.297V45.3412H306.199V45.3341C305.804 45.3318 303.935 45.3177 303.553 45.286C302.52 45.2108 301.247 45.0418 300.299 44.794C300.023 44.7224 299.051 44.4077 298.535 44.1072C295.179 42.4176 292.874 38.968 292.874 34.9736C292.874 29.3096 297.496 24.7188 303.198 24.7188C308.838 24.7188 313.414 29.2133 313.511 34.7904H308.904C308.804 31.7377 306.29 29.2943 303.198 29.2943C300.041 29.2943 297.484 31.8375 297.484 34.9736C297.484 37.1293 298.698 39.0009 300.479 39.9578C300.733 40.0963 301.297 40.3077 301.897 40.4674C302.429 40.5883 303.256 40.6728 303.827 40.721ZM277.352 52.9824H282.179V17H270.299V21.7963H277.352V52.9824ZM265 28.8047V24.1927H274.937V52.9824H270.299V28.8047H265ZM327.589 20.4405C327.589 18.7122 329.031 17.335 330.77 17.335C332.561 17.335 333.947 18.7122 333.947 20.4405C333.947 22.1689 332.561 23.6013 330.77 23.6013C329.031 23.6013 327.589 22.1689 327.589 20.4405ZM328.096 20.4405C328.096 21.9704 329.334 23.0917 330.77 23.0917C332.204 23.0917 333.436 21.9704 333.436 20.4405C333.436 18.9881 332.204 17.8387 330.77 17.8387C329.334 17.8387 328.096 18.9881 328.096 20.4405ZM331.98 21.2916C331.98 20.9429 331.928 20.6188 331.527 20.4908C332.03 20.3171 332.08 19.9895 332.08 19.791C332.08 18.9891 331.347 18.887 331.046 18.887H329.659V21.9925H330.237V20.7186H330.692C331.347 20.7186 331.401 21.018 331.401 21.2916C331.401 21.8211 331.401 21.9209 331.527 21.9925H332.106C332.02 21.9065 332.016 21.8336 332.006 21.6427C332.002 21.5549 331.996 21.4421 331.98 21.2916ZM330.919 20.2654H330.237V19.2873H330.821C331.225 19.2873 331.499 19.4142 331.499 19.791C331.499 19.9895 331.401 20.2654 330.919 20.2654Z" fill="#D91920"/>
<defs>
<linearGradient id="paint0_linear_2_110" x1="49.7513" y1="30.1612" x2="68.0689" y2="30.1612" gradientUnits="userSpaceOnUse">
<stop stop-color="#001145"/>
<stop offset="1" stop-color="#091DB3"/>
</linearGradient>
<linearGradient id="paint1_linear_2_110" x1="36.4777" y1="26.1725" x2="50.7354" y2="26.1725" gradientUnits="userSpaceOnUse">
<stop/>
<stop offset="1" stop-color="#0000E4"/>
</linearGradient>
<linearGradient id="paint2_linear_2_110" x1="18.6516" y1="26.4819" x2="71.6824" y2="25.9173" gradientUnits="userSpaceOnUse">
<stop stop-color="#1219B5"/>
<stop offset="0.490196" stop-color="#105CD8"/>
<stop offset="1" stop-color="#00AFFF"/>
</linearGradient>
<linearGradient id="paint3_linear_2_110" x1="32.6286" y1="17.8383" x2="51.9932" y2="28.1179" gradientUnits="userSpaceOnUse">
<stop stop-color="#000095"/>
<stop offset="1" stop-color="#1948AD"/>
</linearGradient>
<linearGradient id="paint4_linear_2_110" x1="41.6382" y1="23.6684" x2="47.3021" y2="26.6751" gradientUnits="userSpaceOnUse">
<stop stop-color="#000095"/>
<stop offset="1" stop-color="#2054C2"/>
</linearGradient>
<linearGradient id="paint5_linear_2_110" x1="41.6382" y1="23.6684" x2="47.3021" y2="26.6751" gradientUnits="userSpaceOnUse">
<stop stop-color="#000095"/>
<stop offset="1" stop-color="#2054C2"/>
</linearGradient>
<linearGradient id="paint6_linear_2_110" x1="10.4214" y1="47.4422" x2="56.3501" y2="20.9253" gradientUnits="userSpaceOnUse">
<stop stop-color="#212AFF"/>
<stop offset="0.490196" stop-color="#116CFF"/>
<stop offset="1" stop-color="#00AFFF"/>
</linearGradient>
<linearGradient id="paint7_linear_2_110" x1="16.6286" y1="30.8265" x2="38.5525" y2="30.8265" gradientUnits="userSpaceOnUse">
<stop stop-color="#000095"/>
<stop offset="1" stop-color="#2167FF"/>
</linearGradient>
<linearGradient id="paint8_linear_2_110" x1="27.32" y1="31.7516" x2="33.7325" y2="31.7516" gradientUnits="userSpaceOnUse">
<stop stop-color="#000095"/>
<stop offset="1" stop-color="#2167FF"/>
</linearGradient>
<linearGradient id="paint9_linear_2_110" x1="27.32" y1="31.7516" x2="33.7325" y2="31.7516" gradientUnits="userSpaceOnUse">
<stop stop-color="#000095"/>
<stop offset="1" stop-color="#2167FF"/>
</linearGradient>
</defs>
</svg>
